<?xml version="1.0" encoding="UTF-8" standalone="no"?>
<!-- Created with Inkscape (http://www.inkscape.org/) -->

<svg
   version="1.1"
   id="svg1"
   width="2048"
   height="1446"
   viewBox="0 0 2048 1446"
   sodipodi:docname="map_0.2.svg"
   xml:space="preserve"
   inkscape:export-filename="map_two_regions"
   inkscape:export-xdpi="96"
   inkscape:export-ydpi="96"
   inkscape:version="1.4.2 (f4327f4, 2025-05-13)"
   xmlns:inkscape="http://www.inkscape.org/namespaces/inkscape"
   xmlns:sodipodi="http://sodipodi.sourceforge.net/DTD/sodipodi-0.dtd"
   xmlns:xlink="http://www.w3.org/1999/xlink"
   xmlns="http://www.w3.org/2000/svg"
   xmlns:svg="http://www.w3.org/2000/svg"><defs
     id="defs1" /><sodipodi:namedview
     id="namedview1"
     pagecolor="#505050"
     bordercolor="#ffffff"
     borderopacity="1"
     inkscape:showpageshadow="0"
     inkscape:pageopacity="0"
     inkscape:pagecheckerboard="1"
     inkscape:deskcolor="#505050"
     showgrid="false"
     inkscape:zoom="0.57053942"
     inkscape:cx="979.77455"
     inkscape:cy="772.07636"
     inkscape:window-width="1920"
     inkscape:window-height="1027"
     inkscape:window-x="-8"
     inkscape:window-y="-8"
     inkscape:window-maximized="1"
     inkscape:current-layer="g1" /><g
     inkscape:groupmode="layer"
     id="layer1"
     inkscape:label="fundo"
     sodipodi:insensitive="true"><image
       width="2048"
       height="1446"
       preserveAspectRatio="none"
       xlink:href=""
       id="image1"
       x="0"
       y="0" /></g><g
     inkscape:groupmode="layer"
     inkscape:label="Image"
     id="g1"
     style="fill:#000000;fill-opacity:0;stroke:#ffffff;stroke-opacity:1"><path
       id="rect4"
       style="display:inline;fill:#000000;fill-opacity:0;stroke:#ffffff;stroke-width:5;stroke-dasharray:none;stroke-opacity:1"
       inkscape:label="Encrucilhada"
       d="m 765.92773,417.04688 v 89.85351 h 101.00782 v 66.69727 H 728.51758 v 57.85937 h 197.9082 v -21.2168 h 35.1836 v 164.86719 h 61.60152 23.0313 v 62.48633 h 68.9687 v -62.48633 h 56.4942 v -51.97851 -12.85743 -39.52734 h 46.8398 V 586.5918 h 103.711 v -12.91211 -42.60352 -37.78515 h -186.9981 v -76.24414 z" /><rect
       style="display:inline;fill:#000000;fill-opacity:0;stroke:#ffffff;stroke-width:5;stroke-dasharray:none;stroke-opacity:1"
       id="rect37"
       width="638.89282"
       height="134.54854"
       x="564.53094"
       y="282.49832"
       inkscape:label="DirthMouth" /><path
       id="rect38"
       style="display:inline;fill:#000000;fill-opacity:0;stroke:#ffffff;stroke-width:5;stroke-dasharray:none;stroke-opacity:1"
       inkscape:label="Greepath"
       d="M 27.435547,411.53125 V 601.41992 H 259.41797 v 38.875 H 728.51758 V 573.59766 H 866.93555 V 506.90039 H 765.92773 V 417.04688 H 590.09961 555.17578 397.83594 v 51.92968 h -88.22461 v -57.44531 z" /><path
       id="rect40"
       style="display:inline;fill:#000000;fill-opacity:0;stroke:#ffffff;stroke-width:5;stroke-dasharray:none;stroke-opacity:1"
       inkscape:label="Queens Gardens"
       d="M 128.44531,640.29492 V 720.5 H 319.2832 v 5 24.15625 h -89.25586 v 62.57813 h -86.7539 v 48.5039 53.10352 17.54101 h 410.10351 v -70.64453 h -0.0293 V 744.65625 h 66.10546 V 720.5 696.34375 640.29492 Z" /><path
       id="rect50"
       style="display:inline;fill:#000000;fill-opacity:0;stroke:#ffffff;stroke-width:4.99998;stroke-dasharray:none;stroke-opacity:1"
       inkscape:label="resting_grounds"
       d="M 1677.4746 470.13477 L 1677.4746 586.5918 L 1218.5449 586.5918 L 1218.5449 670.85547 L 1764.1191 670.85547 L 1764.1191 670.89258 L 1810.0938 670.89258 L 1810.0938 586.5918 L 1878.4121 586.5918 L 1878.4121 470.13477 L 1677.4746 470.13477 z " /><path
       id="rect51"
       style="display:inline;fill:#000000;fill-opacity:0;stroke:#ffffff;stroke-width:5;stroke-dasharray:none;stroke-opacity:1"
       inkscape:label="cryistal_peak"
       d="m 1244.1738,147.94922 v 134.54883 h -40.75 v 134.54883 h -68.166 v 76.24414 h 186.9981 v 80.38867 12.91211 h 355.2187 V 470.13477 h 125.7324 v -29.2461 -50.3457 -49.38086 h -200.2343 v 33.86914 h -43.7364 v 42.01563 h -27.3808 V 282.49805 h -40.75 V 147.94922 Z" /><path
       id="rect57"
       style="display:inline;fill:#000000;fill-opacity:0;stroke:#ffffff;stroke-width:5.00001;stroke-dasharray:none;stroke-opacity:1"
       inkscape:label="city_of_tears"
       d="m 1171.7051,670.89258 v 104.47461 h -56.4942 v 100.94922 34.66406 H 947.74414 v 100.94923 h 666.36716 v -85.41798 -15.53125 -97.41211 -38.20117 -38.20313 h -57.7773 v -36.76367 h -63.8047 v -29.50781 z" /><path
       id="rect62"
       style="display:inline;fill:#000000;fill-opacity:0;stroke:#ffffff;stroke-width:5.00001;stroke-dasharray:none;stroke-opacity:1"
       inkscape:label="fog_canyion"
       d="m 728.51758,631.96875 v 8.32617 H 619.45312 v 44.25586 60.10547 h -12.16406 -29.43554 -24.50586 v 64.61719 h 24.50586 29.43554 64.28516 v -42.35352 h 117.09375 v -24.78711 h 65.14844 v -57.58203 -44.25586 -8.32617 z" /><path
       id="rect66"
       style="display:inline;fill:#000000;fill-opacity:0;stroke:#ffffff;stroke-width:5;stroke-dasharray:none;stroke-opacity:1"
       inkscape:label="fungal_wasters"
       d="m 926.6875,610.24023 v 21.2168 h -72.9082 v 111.17578 h -65.08594 v 24.28711 H 671.57422 v 42.35352 H 553.37695 v 61.68945 14.91992 35.27539 h 157.7461 v 90.7715 h 41.9375 v 93.6758 h 88.35351 v -15.17 h 93.17188 v -78.5058 h 13.1582 V 932.01367 921.1582 910.98047 H 1115.2109 V 860.78711 837.66016 H 1046.416 V 775.95312 H 961.60938 V 742.63281 610.24023 Z" /><path
       id="rect77"
       style="display:inline;fill:#000000;fill-opacity:0;stroke:#ffffff;stroke-width:5;stroke-dasharray:none;stroke-opacity:1"
       inkscape:label="deepnest"
       d="m 553.37695,921.1582 v 10.22461 H 367.47266 286.29297 198.29883 143.27344 34.703125 V 1205.9023 H 198.29883 v -110.3027 h 87.99414 v 82.418 h 188.90625 v 39.082 H 676.6875 v 78.7539 h 110.03125 v -78.7539 h 167.07617 v -111.4941 -15.17 H 841.41406 v 15.17 h -88.35351 v -93.6758 h -41.9375 V 931.38281 921.1582 Z" /><path
       id="rect84"
       style="display:inline;fill:#000000;fill-opacity:0;stroke:#ffffff;stroke-width:4.99999;stroke-dasharray:none;stroke-opacity:1"
       inkscape:label="royal_waterways"
       d="m 934.58594,1011.9297 v 78.6992 h 19.20898 v 41.8496 h 211.40238 v 21.6895 h 221.4082 v -21.6895 h 140.0918 v -41.8496 h 32.4531 v -78.6992 z" /><path
       id="rect86"
       style="display:inline;fill:#000000;fill-opacity:0;stroke:#ffffff;stroke-width:5;stroke-dasharray:none;stroke-opacity:1"
       inkscape:label="kingdowm_edge"
       d="M 1492.5293 670.89258 L 1492.5293 700.40039 L 1556.334 700.40039 L 1556.334 737.16406 L 1614.1113 737.16406 L 1614.1113 1011.9297 L 1559.1504 1011.9297 L 1559.1504 1090.6289 L 1526.6973 1090.6289 L 1526.6973 1132.4785 L 1441.2793 1132.4785 L 1441.2793 1229.4512 L 1634.8379 1229.4512 L 1634.8379 1178.4648 L 1650.6602 1178.4648 L 1650.6602 1043.582 L 1690.793 1043.582 L 1787.9512 1043.582 L 1787.9512 1011.9297 L 1811.7305 1011.9297 L 1811.7305 1038.7617 L 1948.3262 1038.7617 L 1948.3262 1011.9297 L 2029.8281 1011.9297 L 2029.8281 850.21484 L 1923.7871 850.21484 L 1923.7871 814.2832 L 1810.0938 814.2832 L 1810.0938 760.9707 L 1810.0938 737.16406 L 1810.0938 700.40039 L 1810.0938 685.67969 L 1810.0938 681.96094 L 1810.0938 670.89258 L 1492.5293 670.89258 z " /><rect
       style="display:inline;fill:#000000;fill-opacity:0;stroke:#ffffff;stroke-width:5;stroke-dasharray:none;stroke-opacity:1"
       id="rect96"
       width="137.29099"
       height="116.81178"
       x="1650.6602"
       y="1043.582"
       inkscape:label="the_hive" /><path
       id="rect97"
       style="display:inline;fill:#000000;fill-opacity:0;stroke:#ffffff;stroke-width:5;stroke-dasharray:none;stroke-opacity:1"
       inkscape:label="ancient_basin"
       d="m 953.79492,1132.6973 v 47.9414 91.5703 h -21.70898 v 125.7949 H 1498.3926 V 1272.209 h -57.1133 v -118.041 -21.1446 h -54.6738 v 21.1446 h -221.4082 v -21.4707 z" /></g></svg>
